<?xml version="1.0" encoding="UTF-8"?>
<svg width="1200pt" height="1200pt" version="1.1" viewBox="0 0 1200 1200" xmlns="http://www.w3.org/2000/svg">
 <path d="m600 111.9c134.77 0 256.82 54.652 345.14 142.96 88.312 88.312 142.96 210.36 142.96 345.14 0 134.77-54.652 256.82-142.96 345.14-88.312 88.312-210.36 142.96-345.14 142.96-134.77 0-256.82-54.652-345.14-142.96-88.312-88.312-142.96-210.36-142.96-345.14 0-134.77 54.652-256.82 142.96-345.14 88.312-88.312 210.36-142.96 345.14-142.96zm394.56 93.543c-100.97-100.97-240.49-163.45-394.56-163.45-154.06 0-293.59 62.477-394.56 163.45-100.97 100.97-163.45 240.49-163.45 394.56 0 154.06 62.477 293.59 163.45 394.56 100.97 100.97 240.49 163.45 394.56 163.45 154.06 0 293.59-62.477 394.56-163.45 100.97-100.97 163.45-240.49 163.45-394.56 0-154.06-62.477-293.59-163.45-394.56zm-731.09 714.11 16.156-16.156c4.6758-4.6758 12.301-4.6758 16.98 0 4.6758 4.6758 4.6758 12.301 0 16.98l-16.156 16.156c80.504 76.48 188.46 124.39 307.55 127.4v-64.445c0-6.6172 5.3867-12.004 12.004-12.004s12.004 5.3867 12.004 12.004v64.445c119.09-3.0195 227.04-50.926 307.55-127.4l-16.188-16.188c-4.6758-4.6758-4.6758-12.301 0-16.98 4.6758-4.6758 12.301-4.6758 16.98 0l16.188 16.188c76.48-80.504 124.39-188.46 127.4-307.55h-64.445c-6.6172 0-12.004-5.3867-12.004-12.004s5.3867-12.004 12.004-12.004h64.445c-3.0195-119.09-50.926-227.04-127.4-307.55l-16.188 16.188c-4.6758 4.6758-12.301 4.6758-16.98 0-4.6758-4.6758-4.6758-12.301 0-16.98l16.188-16.188c-80.504-76.48-188.46-124.39-307.55-127.4v64.445c0 6.6172-5.3867 12.004-12.004 12.004s-12.004-5.3867-12.004-12.004v-64.445c-119.09 3.0195-227.04 50.926-307.55 127.4l16.188 16.188c4.6758 4.6758 4.6758 12.301 0 16.98-4.6758 4.6758-12.301 4.6758-16.98 0l-16.188-16.188c-76.48 80.504-124.39 188.46-127.4 307.55h64.445c6.6172 0 12.004 5.3867 12.004 12.004s-5.3867 12.004-12.004 12.004h-64.445c3.0195 119.09 50.926 227.04 127.4 307.55zm255.46-301.55h-166.84c-9.9336 0-18-8.0664-18-18s8.0664-18 18-18h166.84c3.4727-15.648 11.383-29.664 22.406-40.707 15.094-15.051 35.816-24.336 58.664-24.336 22.863 0 43.598 9.2969 58.707 24.379 15.051 15.094 24.336 35.816 24.336 58.664 0 22.863-9.2969 43.598-24.379 58.707-11.027 11-25.016 18.895-40.664 22.367v107.99c0 9.9336-8.0664 18-18 18s-18-8.0664-18-18v-107.99c-15.648-3.4727-29.664-11.383-40.707-22.406-11-11.027-18.895-25.016-22.367-40.664zm114.36-51.309c-8.4766-8.4883-20.254-13.734-33.293-13.734s-24.816 5.2422-33.266 13.707c-8.5312 8.5195-13.777 20.297-13.777 33.336s5.2422 24.816 13.707 33.266c8.5195 8.5312 20.297 13.777 33.336 13.777s24.816-5.2422 33.266-13.707c8.5312-8.5195 13.777-20.297 13.777-33.336s-5.2422-24.816-13.75-33.309z" fill="#033f01"/>
</svg>
