<?xml version="1.0" encoding="UTF-8"?>
<svg width="1200pt" height="1200pt" version="1.1" viewBox="0 0 1200 1200" xmlns="http://www.w3.org/2000/svg">
 <path d="m1128.1 853.05h-0.085937l-355.92-81.391c-30.781 30.867-52.336 70.961-59.922 115.88-185.89-65.27-332.9-213.14-396.96-399.63l0.085938-0.085937c45.352-7.3281 85.961-28.969 117.18-60.094v-0.085938l-79.934-355.49c-11.555-4.1406-23.539-7.3281-35.867-9.3125-11.898-2.1562-24.141-3.1914-36.559-3.1914-118.3 0-214.34 95.359-215.47 213.31-0.085938 0.77344-0.085938 1.4648-0.085938 2.2422v2.2422c0 474.73 383.6 859.79 857.73 862.12 0.77344 0.085938 1.4648 0.085938 2.2422 0.085938h0.77344c118.73-0.42969 214.78-96.738 214.78-215.55 0-11.898-0.94922-23.625-2.9336-35.008-1.8906-12.414-4.9961-24.484-9.0469-36.039z" fill="#033f01"/>
</svg>
